<mxfile host="app.diagrams.net" modified="2021-02-04T19:51:49.753Z" agent="5.0 (Windows NT 10.0; Win64; x64) AppleWebKit/537.36 (KHTML, like Gecko) Chrome/88.0.4324.104 Safari/537.36" etag="PZkx3Xgy0b0n1pCNeJzh" version="14.2.9" type="github">
  <diagram id="tcb3Zmg-1LNpdsQCU9It" name="Page-1">
    <mxGraphModel dx="1038" dy="523" grid="1" gridSize="10" guides="1" tooltips="1" connect="1" arrows="1" fold="1" page="1" pageScale="1" pageWidth="850" pageHeight="1100" math="0" shadow="0">
      <root>
        <mxCell id="0" />
        <mxCell id="1" parent="0" />
        <mxCell id="BRMWttLgf0RYNZpr4bQj-1" value="Clients" style="swimlane;html=1;startSize=20;" vertex="1" parent="1">
          <mxGeometry x="40" y="100" width="250" height="950" as="geometry" />
        </mxCell>
        <mxCell id="BRMWttLgf0RYNZpr4bQj-6" value="" style="ellipse;fillColor=#000000;strokeColor=none;" vertex="1" parent="BRMWttLgf0RYNZpr4bQj-1">
          <mxGeometry x="30" y="40" width="30" height="30" as="geometry" />
        </mxCell>
        <mxCell id="BRMWttLgf0RYNZpr4bQj-7" value="Appelle le magasin et&amp;nbsp;&lt;br&gt;discute" style="html=1;align=center;verticalAlign=top;rounded=1;absoluteArcSize=1;arcSize=10;dashed=0;" vertex="1" parent="BRMWttLgf0RYNZpr4bQj-1">
          <mxGeometry x="90" y="40" width="120" height="40" as="geometry" />
        </mxCell>
        <mxCell id="BRMWttLgf0RYNZpr4bQj-19" value="Donne le numéro de &lt;br&gt;commande" style="html=1;align=center;verticalAlign=top;rounded=1;absoluteArcSize=1;arcSize=10;dashed=0;" vertex="1" parent="BRMWttLgf0RYNZpr4bQj-1">
          <mxGeometry x="80" y="320" width="140" height="40" as="geometry" />
        </mxCell>
        <mxCell id="BRMWttLgf0RYNZpr4bQj-17" value="Fournis Information &lt;br&gt;&lt;span style=&quot;color: rgba(0 , 0 , 0 , 0) ; font-family: monospace ; font-size: 0px&quot;&gt;%3CmxGraphModel%3E%3Croot%3E%3CmxCell%20id%3D%220%22%2F%3E%3CmxCell%20id%3D%221%22%20parent%3D%220%22%2F%3E%3CmxCell%20id%3D%222%22%20value%3D%22Action1%22%20style%3D%22html%3D1%3Balign%3Dcenter%3BverticalAlign%3Dtop%3Brounded%3D1%3BabsoluteArcSize%3D1%3BarcSize%3D10%3Bdashed%3D0%3B%22%20vertex%3D%221%22%20parent%3D%221%22%3E%3CmxGeometry%20x%3D%22130%22%20y%3D%22500%22%20width%3D%22140%22%20height%3D%2240%22%20as%3D%22geometry%22%2F%3E%3C%2FmxCell%3E%3C%2Froot%3E%3C%2FmxGraphModel%3E&lt;/span&gt;paiement" style="html=1;align=center;verticalAlign=top;rounded=1;absoluteArcSize=1;arcSize=10;dashed=0;" vertex="1" parent="BRMWttLgf0RYNZpr4bQj-1">
          <mxGeometry x="90" y="400" width="140" height="40" as="geometry" />
        </mxCell>
        <mxCell id="BRMWttLgf0RYNZpr4bQj-3" value="Préposé au Commande" style="swimlane;html=1;startSize=20;" vertex="1" parent="1">
          <mxGeometry x="290" y="100" width="440" height="950" as="geometry" />
        </mxCell>
        <mxCell id="BRMWttLgf0RYNZpr4bQj-8" value="Questionne le client et&amp;nbsp;&lt;br&gt;demande au informaticiens" style="html=1;align=center;verticalAlign=top;rounded=1;absoluteArcSize=1;arcSize=10;dashed=0;" vertex="1" parent="BRMWttLgf0RYNZpr4bQj-3">
          <mxGeometry x="50" y="40" width="160" height="40" as="geometry" />
        </mxCell>
        <mxCell id="BRMWttLgf0RYNZpr4bQj-15" value="Y&#39;a pas d&#39;information sur&amp;nbsp;&lt;br&gt;client" style="html=1;align=center;verticalAlign=top;rounded=1;absoluteArcSize=1;arcSize=10;dashed=0;" vertex="1" parent="BRMWttLgf0RYNZpr4bQj-3">
          <mxGeometry x="130" y="160" width="140" height="40" as="geometry" />
        </mxCell>
        <mxCell id="BRMWttLgf0RYNZpr4bQj-25" value="Non" style="text;html=1;strokeColor=none;fillColor=none;align=center;verticalAlign=middle;whiteSpace=wrap;rounded=0;" vertex="1" parent="BRMWttLgf0RYNZpr4bQj-3">
          <mxGeometry x="190" y="110" width="40" height="20" as="geometry" />
        </mxCell>
        <mxCell id="BRMWttLgf0RYNZpr4bQj-23" value="Vérifie les informations&amp;nbsp; et&amp;nbsp;&lt;br&gt;débute la commande" style="html=1;align=center;verticalAlign=top;rounded=1;absoluteArcSize=1;arcSize=10;dashed=0;" vertex="1" parent="BRMWttLgf0RYNZpr4bQj-3">
          <mxGeometry x="270" y="230" width="140" height="50" as="geometry" />
        </mxCell>
        <mxCell id="BRMWttLgf0RYNZpr4bQj-20" value="Remplit, vérifie les&lt;br&gt;informations&lt;br&gt;&amp;nbsp;sur le formulaire" style="html=1;align=center;verticalAlign=top;rounded=1;absoluteArcSize=1;arcSize=10;dashed=0;" vertex="1" parent="BRMWttLgf0RYNZpr4bQj-3">
          <mxGeometry x="110" y="250" width="140" height="60" as="geometry" />
        </mxCell>
        <mxCell id="BRMWttLgf0RYNZpr4bQj-16" value="Le client existe?" style="text;html=1;strokeColor=none;fillColor=none;align=center;verticalAlign=middle;whiteSpace=wrap;rounded=0;" vertex="1" parent="BRMWttLgf0RYNZpr4bQj-3">
          <mxGeometry x="330" y="60" width="110" height="30" as="geometry" />
        </mxCell>
        <mxCell id="BRMWttLgf0RYNZpr4bQj-18" value="Entre le numéro" style="html=1;align=center;verticalAlign=top;rounded=1;absoluteArcSize=1;arcSize=10;dashed=0;" vertex="1" parent="BRMWttLgf0RYNZpr4bQj-3">
          <mxGeometry x="140" y="340" width="140" height="30" as="geometry" />
        </mxCell>
        <mxCell id="BRMWttLgf0RYNZpr4bQj-44" style="edgeStyle=orthogonalEdgeStyle;rounded=0;orthogonalLoop=1;jettySize=auto;html=1;entryX=0;entryY=0.5;entryDx=0;entryDy=0;" edge="1" parent="BRMWttLgf0RYNZpr4bQj-3" source="BRMWttLgf0RYNZpr4bQj-42" target="BRMWttLgf0RYNZpr4bQj-18">
          <mxGeometry relative="1" as="geometry" />
        </mxCell>
        <mxCell id="BRMWttLgf0RYNZpr4bQj-42" value="Note" style="shape=note;whiteSpace=wrap;html=1;rounded=0;shadow=0;comic=0;labelBackgroundColor=none;strokeWidth=1;fontFamily=Verdana;fontSize=12;align=center;size=6;" vertex="1" parent="BRMWttLgf0RYNZpr4bQj-3">
          <mxGeometry x="20" y="330" width="40" height="55" as="geometry" />
        </mxCell>
        <mxCell id="BRMWttLgf0RYNZpr4bQj-46" value="Entre les informations&amp;nbsp;" style="html=1;align=center;verticalAlign=top;rounded=1;absoluteArcSize=1;arcSize=10;dashed=0;" vertex="1" parent="BRMWttLgf0RYNZpr4bQj-3">
          <mxGeometry x="90" y="410" width="140" height="40" as="geometry" />
        </mxCell>
        <mxCell id="BRMWttLgf0RYNZpr4bQj-14" style="edgeStyle=orthogonalEdgeStyle;rounded=0;orthogonalLoop=1;jettySize=auto;html=1;exitX=0.5;exitY=1;exitDx=0;exitDy=0;" edge="1" parent="1" source="BRMWttLgf0RYNZpr4bQj-10">
          <mxGeometry relative="1" as="geometry">
            <mxPoint x="490" y="260" as="targetPoint" />
          </mxGeometry>
        </mxCell>
        <mxCell id="BRMWttLgf0RYNZpr4bQj-5" value="&lt;span style=&quot;font-family: &amp;#34;helvetica&amp;#34;&quot;&gt;Système Informatique&lt;/span&gt;" style="swimlane;html=1;startSize=20;" vertex="1" parent="1">
          <mxGeometry x="730" y="100" width="390" height="950" as="geometry" />
        </mxCell>
        <mxCell id="BRMWttLgf0RYNZpr4bQj-30" style="edgeStyle=orthogonalEdgeStyle;rounded=0;orthogonalLoop=1;jettySize=auto;html=1;exitX=0.5;exitY=1;exitDx=0;exitDy=0;entryX=0;entryY=0;entryDx=15;entryDy=0;entryPerimeter=0;" edge="1" parent="BRMWttLgf0RYNZpr4bQj-5" source="BRMWttLgf0RYNZpr4bQj-9" target="BRMWttLgf0RYNZpr4bQj-28">
          <mxGeometry relative="1" as="geometry" />
        </mxCell>
        <mxCell id="BRMWttLgf0RYNZpr4bQj-9" value="Envoie les informations du&amp;nbsp;&lt;br&gt;client&lt;br&gt;" style="html=1;align=center;verticalAlign=top;rounded=1;absoluteArcSize=1;arcSize=10;dashed=0;" vertex="1" parent="BRMWttLgf0RYNZpr4bQj-5">
          <mxGeometry x="240" y="130" width="140" height="40" as="geometry" />
        </mxCell>
        <mxCell id="BRMWttLgf0RYNZpr4bQj-13" style="edgeStyle=orthogonalEdgeStyle;rounded=0;orthogonalLoop=1;jettySize=auto;html=1;exitX=1;exitY=0.5;exitDx=0;exitDy=0;entryX=0.5;entryY=0;entryDx=0;entryDy=0;" edge="1" parent="BRMWttLgf0RYNZpr4bQj-5" source="BRMWttLgf0RYNZpr4bQj-10" target="BRMWttLgf0RYNZpr4bQj-9">
          <mxGeometry relative="1" as="geometry">
            <mxPoint x="100" y="150" as="targetPoint" />
            <Array as="points">
              <mxPoint x="100" y="100" />
            </Array>
          </mxGeometry>
        </mxCell>
        <mxCell id="BRMWttLgf0RYNZpr4bQj-10" value="" style="rhombus;whiteSpace=wrap;html=1;" vertex="1" parent="BRMWttLgf0RYNZpr4bQj-5">
          <mxGeometry x="-9.999999999999773" y="80" width="40" height="40" as="geometry" />
        </mxCell>
        <mxCell id="BRMWttLgf0RYNZpr4bQj-24" value="Oui" style="text;html=1;strokeColor=none;fillColor=none;align=center;verticalAlign=middle;whiteSpace=wrap;rounded=0;" vertex="1" parent="BRMWttLgf0RYNZpr4bQj-5">
          <mxGeometry x="290" y="100" width="40" height="20" as="geometry" />
        </mxCell>
        <mxCell id="BRMWttLgf0RYNZpr4bQj-28" value="Note" style="shape=note;whiteSpace=wrap;html=1;rounded=0;shadow=0;comic=0;labelBackgroundColor=none;strokeWidth=1;fontFamily=Verdana;fontSize=12;align=center;size=20;" vertex="1" parent="BRMWttLgf0RYNZpr4bQj-5">
          <mxGeometry x="300" y="200" width="50" height="55" as="geometry" />
        </mxCell>
        <mxCell id="BRMWttLgf0RYNZpr4bQj-22" value="Crée nouvelle commande" style="html=1;align=center;verticalAlign=top;rounded=1;absoluteArcSize=1;arcSize=10;dashed=0;" vertex="1" parent="BRMWttLgf0RYNZpr4bQj-5">
          <mxGeometry x="255" y="270" width="140" height="40" as="geometry" />
        </mxCell>
        <mxCell id="BRMWttLgf0RYNZpr4bQj-21" value="Crée un nouveau client" style="html=1;align=center;verticalAlign=top;rounded=1;absoluteArcSize=1;arcSize=10;dashed=0;" vertex="1" parent="BRMWttLgf0RYNZpr4bQj-5">
          <mxGeometry x="10" y="150" width="180" height="30" as="geometry" />
        </mxCell>
        <mxCell id="BRMWttLgf0RYNZpr4bQj-51" style="edgeStyle=orthogonalEdgeStyle;rounded=0;orthogonalLoop=1;jettySize=auto;html=1;entryX=0.5;entryY=0;entryDx=0;entryDy=0;" edge="1" parent="BRMWttLgf0RYNZpr4bQj-5" source="BRMWttLgf0RYNZpr4bQj-49" target="BRMWttLgf0RYNZpr4bQj-27">
          <mxGeometry relative="1" as="geometry" />
        </mxCell>
        <mxCell id="BRMWttLgf0RYNZpr4bQj-49" value="Finalise la commande" style="html=1;align=center;verticalAlign=top;rounded=1;absoluteArcSize=1;arcSize=10;dashed=0;" vertex="1" parent="BRMWttLgf0RYNZpr4bQj-5">
          <mxGeometry x="140" y="460" width="140" height="40" as="geometry" />
        </mxCell>
        <mxCell id="BRMWttLgf0RYNZpr4bQj-27" value="" style="ellipse;html=1;shape=endState;fillColor=#000000;strokeColor=#000000;" vertex="1" parent="BRMWttLgf0RYNZpr4bQj-5">
          <mxGeometry x="195" y="540" width="30" height="30" as="geometry" />
        </mxCell>
        <mxCell id="BRMWttLgf0RYNZpr4bQj-12" style="edgeStyle=orthogonalEdgeStyle;rounded=0;orthogonalLoop=1;jettySize=auto;html=1;exitX=1;exitY=0.5;exitDx=0;exitDy=0;" edge="1" parent="1" source="BRMWttLgf0RYNZpr4bQj-8" target="BRMWttLgf0RYNZpr4bQj-10">
          <mxGeometry relative="1" as="geometry" />
        </mxCell>
        <mxCell id="BRMWttLgf0RYNZpr4bQj-31" style="edgeStyle=orthogonalEdgeStyle;rounded=0;orthogonalLoop=1;jettySize=auto;html=1;exitX=0;exitY=0.5;exitDx=0;exitDy=0;exitPerimeter=0;" edge="1" parent="1" source="BRMWttLgf0RYNZpr4bQj-28" target="BRMWttLgf0RYNZpr4bQj-23">
          <mxGeometry relative="1" as="geometry" />
        </mxCell>
        <mxCell id="BRMWttLgf0RYNZpr4bQj-33" style="edgeStyle=orthogonalEdgeStyle;rounded=0;orthogonalLoop=1;jettySize=auto;html=1;entryX=0;entryY=0.5;entryDx=0;entryDy=0;" edge="1" parent="1" source="BRMWttLgf0RYNZpr4bQj-23" target="BRMWttLgf0RYNZpr4bQj-22">
          <mxGeometry relative="1" as="geometry" />
        </mxCell>
        <mxCell id="BRMWttLgf0RYNZpr4bQj-34" style="edgeStyle=orthogonalEdgeStyle;rounded=0;orthogonalLoop=1;jettySize=auto;html=1;entryX=0;entryY=0.5;entryDx=0;entryDy=0;" edge="1" parent="1" source="BRMWttLgf0RYNZpr4bQj-15" target="BRMWttLgf0RYNZpr4bQj-21">
          <mxGeometry relative="1" as="geometry" />
        </mxCell>
        <mxCell id="BRMWttLgf0RYNZpr4bQj-37" style="edgeStyle=orthogonalEdgeStyle;rounded=0;orthogonalLoop=1;jettySize=auto;html=1;" edge="1" parent="1" source="BRMWttLgf0RYNZpr4bQj-21" target="BRMWttLgf0RYNZpr4bQj-20">
          <mxGeometry relative="1" as="geometry" />
        </mxCell>
        <mxCell id="BRMWttLgf0RYNZpr4bQj-39" style="edgeStyle=orthogonalEdgeStyle;rounded=0;orthogonalLoop=1;jettySize=auto;html=1;entryX=0.5;entryY=1;entryDx=0;entryDy=0;" edge="1" parent="1" source="BRMWttLgf0RYNZpr4bQj-20" target="BRMWttLgf0RYNZpr4bQj-22">
          <mxGeometry relative="1" as="geometry" />
        </mxCell>
        <mxCell id="BRMWttLgf0RYNZpr4bQj-40" style="edgeStyle=orthogonalEdgeStyle;rounded=0;orthogonalLoop=1;jettySize=auto;html=1;exitX=0.75;exitY=1;exitDx=0;exitDy=0;" edge="1" parent="1" source="BRMWttLgf0RYNZpr4bQj-22" target="BRMWttLgf0RYNZpr4bQj-19">
          <mxGeometry relative="1" as="geometry" />
        </mxCell>
        <mxCell id="BRMWttLgf0RYNZpr4bQj-43" style="edgeStyle=orthogonalEdgeStyle;rounded=0;orthogonalLoop=1;jettySize=auto;html=1;exitX=1;exitY=0.5;exitDx=0;exitDy=0;entryX=0;entryY=0.5;entryDx=0;entryDy=0;entryPerimeter=0;" edge="1" parent="1" source="BRMWttLgf0RYNZpr4bQj-19" target="BRMWttLgf0RYNZpr4bQj-42">
          <mxGeometry relative="1" as="geometry" />
        </mxCell>
        <mxCell id="BRMWttLgf0RYNZpr4bQj-45" style="edgeStyle=orthogonalEdgeStyle;rounded=0;orthogonalLoop=1;jettySize=auto;html=1;exitX=1;exitY=0.5;exitDx=0;exitDy=0;entryX=0.67;entryY=1.01;entryDx=0;entryDy=0;entryPerimeter=0;" edge="1" parent="1" source="BRMWttLgf0RYNZpr4bQj-18" target="BRMWttLgf0RYNZpr4bQj-22">
          <mxGeometry relative="1" as="geometry" />
        </mxCell>
        <mxCell id="BRMWttLgf0RYNZpr4bQj-47" style="edgeStyle=orthogonalEdgeStyle;rounded=0;orthogonalLoop=1;jettySize=auto;html=1;entryX=0;entryY=0.5;entryDx=0;entryDy=0;" edge="1" parent="1" source="BRMWttLgf0RYNZpr4bQj-17" target="BRMWttLgf0RYNZpr4bQj-46">
          <mxGeometry relative="1" as="geometry" />
        </mxCell>
        <mxCell id="BRMWttLgf0RYNZpr4bQj-50" style="edgeStyle=orthogonalEdgeStyle;rounded=0;orthogonalLoop=1;jettySize=auto;html=1;exitX=1;exitY=0.5;exitDx=0;exitDy=0;" edge="1" parent="1" source="BRMWttLgf0RYNZpr4bQj-46" target="BRMWttLgf0RYNZpr4bQj-49">
          <mxGeometry relative="1" as="geometry" />
        </mxCell>
      </root>
    </mxGraphModel>
  </diagram>
</mxfile>
